<mxfile host="app.diagrams.net" agent="Mozilla/5.0 (X11; Ubuntu; Linux x86_64; rv:138.0) Gecko/20100101 Firefox/138.0" version="27.0.6">
  <diagram name="Page-1" id="W1TCwagpqR8f09Ie4Hja">
    <mxGraphModel dx="1426" dy="790" grid="1" gridSize="10" guides="1" tooltips="1" connect="1" arrows="1" fold="1" page="1" pageScale="1" pageWidth="850" pageHeight="1100" math="0" shadow="0">
      <root>
        <mxCell id="0" />
        <mxCell id="1" parent="0" />
        <mxCell id="ka5TXKdP_WDmOx5hF419-1" value="pipe buffer" style="rounded=0;whiteSpace=wrap;html=1;fillColor=#d5e8d4;strokeColor=#82b366;" vertex="1" parent="1">
          <mxGeometry x="360" y="220" width="120" height="60" as="geometry" />
        </mxCell>
        <mxCell id="ka5TXKdP_WDmOx5hF419-2" value="" style="endArrow=none;html=1;rounded=0;" edge="1" parent="1">
          <mxGeometry width="50" height="50" relative="1" as="geometry">
            <mxPoint x="160" y="320" as="sourcePoint" />
            <mxPoint x="680" y="320" as="targetPoint" />
          </mxGeometry>
        </mxCell>
        <mxCell id="ka5TXKdP_WDmOx5hF419-3" value="Process A buffer" style="rounded=0;whiteSpace=wrap;html=1;fillColor=#ffe6cc;strokeColor=#d79b00;" vertex="1" parent="1">
          <mxGeometry x="200" y="420" width="120" height="60" as="geometry" />
        </mxCell>
        <mxCell id="ka5TXKdP_WDmOx5hF419-4" value="Process B buffer" style="rounded=0;whiteSpace=wrap;html=1;fillColor=#e1d5e7;strokeColor=#9673a6;" vertex="1" parent="1">
          <mxGeometry x="520" y="420" width="120" height="60" as="geometry" />
        </mxCell>
        <mxCell id="ka5TXKdP_WDmOx5hF419-5" value="" style="endArrow=classic;html=1;rounded=0;exitX=0.5;exitY=0;exitDx=0;exitDy=0;entryX=0.5;entryY=1;entryDx=0;entryDy=0;" edge="1" parent="1" source="ka5TXKdP_WDmOx5hF419-3" target="ka5TXKdP_WDmOx5hF419-1">
          <mxGeometry width="50" height="50" relative="1" as="geometry">
            <mxPoint x="400" y="440" as="sourcePoint" />
            <mxPoint x="450" y="390" as="targetPoint" />
          </mxGeometry>
        </mxCell>
        <mxCell id="ka5TXKdP_WDmOx5hF419-6" value="" style="endArrow=classic;html=1;rounded=0;exitX=0.5;exitY=1;exitDx=0;exitDy=0;entryX=0.5;entryY=0;entryDx=0;entryDy=0;" edge="1" parent="1" source="ka5TXKdP_WDmOx5hF419-1" target="ka5TXKdP_WDmOx5hF419-4">
          <mxGeometry width="50" height="50" relative="1" as="geometry">
            <mxPoint x="400" y="440" as="sourcePoint" />
            <mxPoint x="450" y="390" as="targetPoint" />
          </mxGeometry>
        </mxCell>
        <mxCell id="ka5TXKdP_WDmOx5hF419-7" value="&lt;i&gt;Kernel space&lt;/i&gt;" style="text;html=1;align=center;verticalAlign=middle;whiteSpace=wrap;rounded=0;" vertex="1" parent="1">
          <mxGeometry x="620" y="270" width="60" height="30" as="geometry" />
        </mxCell>
        <mxCell id="ka5TXKdP_WDmOx5hF419-8" value="&lt;i&gt;User space&lt;/i&gt;" style="text;html=1;align=center;verticalAlign=middle;whiteSpace=wrap;rounded=0;" vertex="1" parent="1">
          <mxGeometry x="620" y="340" width="60" height="30" as="geometry" />
        </mxCell>
        <mxCell id="ka5TXKdP_WDmOx5hF419-9" value="&lt;i&gt;write()&lt;/i&gt;" style="text;html=1;align=center;verticalAlign=middle;whiteSpace=wrap;rounded=0;rotation=-40;" vertex="1" parent="1">
          <mxGeometry x="260" y="350" width="60" height="30" as="geometry" />
        </mxCell>
        <mxCell id="ka5TXKdP_WDmOx5hF419-10" value="&lt;i&gt;read()&lt;/i&gt;" style="text;html=1;align=center;verticalAlign=middle;whiteSpace=wrap;rounded=0;rotation=45;" vertex="1" parent="1">
          <mxGeometry x="500.0031474388674" y="340.00429493738085" width="60" height="30" as="geometry" />
        </mxCell>
      </root>
    </mxGraphModel>
  </diagram>
</mxfile>
